<svg width="38" height="26" viewBox="0 0 38 26" fill="none" xmlns="http://www.w3.org/2000/svg">
<path d="M20.1369 26C22.8983 26 25.1842 23.7425 24.6732 21.0288C24.3528 19.3274 23.8679 17.6594 23.2235 16.0502C21.9602 12.8958 20.1087 10.0295 17.7745 7.61523C15.4403 5.20091 12.6692 3.28576 9.61949 1.97914C8.11383 1.33407 6.55481 0.843552 4.96489 0.51221C2.26154 -0.051168 0 2.23859 0 5.00001V21C0 23.7614 2.23858 26 5 26H20.1369Z" fill="#615DFF"/>
<g style="mix-blend-mode:multiply">
<path d="M17.6082 25.5737C14.8468 25.5737 12.5608 23.3162 13.0719 20.6025C13.3923 18.9011 13.8772 17.2331 14.5216 15.6239C15.7849 12.4695 17.6364 9.60318 19.9706 7.1889C22.3048 4.77458 25.0759 2.85943 28.1256 1.55281C29.6313 0.907744 31.1903 0.417221 32.7802 0.0858795C35.4836 -0.477499 37.7451 1.81226 37.7451 4.57368V20.5737C37.7451 23.3351 35.5065 25.5737 32.7451 25.5737H17.6082Z" fill="#3DD9EB"/>
</g>
</svg>
