<svg width="134" height="34" viewBox="0 0 134 34" fill="none" xmlns="http://www.w3.org/2000/svg">
<path d="M20.1369 32C22.8983 32 25.1842 29.7425 24.6732 27.0288C24.3528 25.3274 23.8679 23.6594 23.2235 22.0502C21.9602 18.8958 20.1087 16.0295 17.7745 13.6152C15.4403 11.2009 12.6692 9.28576 9.61949 7.97914C8.11383 7.33407 6.55481 6.84355 4.96489 6.51221C2.26154 5.94883 0 8.23859 0 11V27C0 29.7614 2.23858 32 5 32H20.1369Z" fill="#615DFF"/>
<g style="mix-blend-mode:multiply">
<path d="M17.6082 31.5737C14.8468 31.5737 12.5608 29.3162 13.0719 26.6025C13.3923 24.9011 13.8772 23.2331 14.5216 21.6239C15.7849 18.4695 17.6364 15.6032 19.9706 13.1889C22.3048 10.7746 25.0759 8.85943 28.1256 7.55281C29.6313 6.90774 31.1903 6.41722 32.7802 6.08588C35.4836 5.5225 37.7451 7.81226 37.7451 10.5737V26.5737C37.7451 29.3351 35.5065 31.5737 32.7451 31.5737H17.6082Z" fill="#3DD9EB"/>
</g>
<path d="M65.6138 17.9058C65.6138 19.9159 65.2476 21.5964 64.5151 22.9473C63.7827 24.29 62.7207 25.3032 61.3291 25.9868C59.9456 26.6623 58.2651 27 56.2876 27H51.4414V9.15332H56.8247C58.6395 9.15332 60.202 9.48698 61.5122 10.1543C62.8224 10.8135 63.8315 11.7941 64.5396 13.0962C65.2557 14.3901 65.6138 15.9933 65.6138 17.9058ZM63.4287 17.979C63.4287 16.3758 63.1602 15.0534 62.623 14.0117C62.0941 12.9701 61.3128 12.1969 60.2793 11.6924C59.2539 11.1797 57.9966 10.9233 56.5073 10.9233H53.5166V25.2178H56.0435C58.5011 25.2178 60.3444 24.6115 61.5732 23.3989C62.8102 22.1864 63.4287 20.3797 63.4287 17.979ZM74.2808 13.4014C75.8758 13.4014 77.0599 13.7594 77.833 14.4756C78.6061 15.1917 78.9927 16.3351 78.9927 17.9058V27H77.5156L77.125 25.0225H77.0273C76.653 25.5107 76.2624 25.9217 75.8555 26.2554C75.4486 26.5809 74.9766 26.8291 74.4395 27C73.9105 27.1628 73.2594 27.2441 72.4863 27.2441C71.6725 27.2441 70.9482 27.1017 70.3135 26.8169C69.6868 26.5321 69.1904 26.1007 68.8242 25.5229C68.4661 24.9451 68.2871 24.2127 68.2871 23.3257C68.2871 21.991 68.8161 20.9657 69.874 20.2495C70.932 19.5334 72.5433 19.1427 74.708 19.0776L77.0151 18.98V18.1621C77.0151 17.0065 76.7669 16.1968 76.2705 15.7329C75.7741 15.269 75.0742 15.0371 74.1709 15.0371C73.471 15.0371 72.8037 15.1388 72.1689 15.3423C71.5342 15.5457 70.932 15.7858 70.3623 16.0625L69.7397 14.5244C70.342 14.2152 71.0337 13.9507 71.8149 13.731C72.5962 13.5112 73.4181 13.4014 74.2808 13.4014ZM76.9907 20.4082L74.9521 20.4937C73.2839 20.5588 72.1079 20.8314 71.4243 21.3115C70.7407 21.7917 70.3989 22.4712 70.3989 23.3501C70.3989 24.1151 70.6309 24.6807 71.0947 25.0469C71.5586 25.4131 72.173 25.5962 72.938 25.5962C74.1261 25.5962 75.0986 25.2666 75.8555 24.6074C76.6123 23.9482 76.9907 22.9595 76.9907 21.6411V20.4082ZM91.8223 23.3379C91.8223 24.1924 91.6066 24.9126 91.1753 25.4985C90.7521 26.0763 90.1418 26.5117 89.3442 26.8047C88.5549 27.0977 87.6108 27.2441 86.5122 27.2441C85.5763 27.2441 84.7666 27.1709 84.083 27.0244C83.3994 26.8779 82.8013 26.6704 82.2886 26.4019V24.5342C82.8338 24.8027 83.4849 25.0469 84.2417 25.2666C84.9985 25.4863 85.7716 25.5962 86.561 25.5962C87.7166 25.5962 88.5549 25.409 89.0757 25.0347C89.5965 24.6603 89.8569 24.1517 89.8569 23.5088C89.8569 23.1426 89.7511 22.8211 89.5396 22.5444C89.3361 22.2596 88.9902 21.987 88.502 21.7266C88.0137 21.458 87.3382 21.165 86.4756 20.8477C85.6211 20.5221 84.8805 20.2007 84.2539 19.8833C83.6354 19.5578 83.1553 19.1631 82.8135 18.6992C82.4798 18.2354 82.313 17.6331 82.313 16.8926C82.313 15.7614 82.7687 14.8947 83.6802 14.2925C84.5998 13.6821 85.8042 13.377 87.2935 13.377C88.0991 13.377 88.8519 13.4583 89.5518 13.6211C90.2598 13.7757 90.9189 13.9873 91.5293 14.2559L90.8457 15.8794C90.2923 15.6434 89.7023 15.444 89.0757 15.2812C88.4491 15.1185 87.8102 15.0371 87.1592 15.0371C86.2233 15.0371 85.5031 15.1917 84.9985 15.501C84.5021 15.8102 84.2539 16.2334 84.2539 16.7705C84.2539 17.1855 84.3678 17.5273 84.5957 17.7959C84.8317 18.0645 85.2061 18.3167 85.7188 18.5527C86.2314 18.7887 86.9069 19.0654 87.7451 19.3828C88.5833 19.6921 89.3076 20.0135 89.918 20.3472C90.5283 20.6727 90.9963 21.0715 91.3218 21.5435C91.6554 22.0073 91.8223 22.6055 91.8223 23.3379ZM97.1079 8.00586V13.6821C97.1079 14.0076 97.0998 14.3372 97.0835 14.6709C97.0672 14.9964 97.0387 15.2975 96.998 15.5742H97.1323C97.409 15.1022 97.759 14.7075 98.1821 14.3901C98.6134 14.0646 99.1017 13.8205 99.647 13.6577C100.192 13.4868 100.77 13.4014 101.38 13.4014C102.455 13.4014 103.35 13.5723 104.066 13.9141C104.79 14.2559 105.331 14.7848 105.689 15.501C106.056 16.2171 106.239 17.1449 106.239 18.2842V27H104.237V18.4185C104.237 17.3035 103.98 16.4694 103.468 15.916C102.963 15.3626 102.186 15.0859 101.136 15.0859C100.143 15.0859 99.3499 15.2772 98.7559 15.6597C98.1699 16.034 97.7467 16.5874 97.4863 17.3198C97.234 18.0522 97.1079 18.9474 97.1079 20.0054V27H95.0815V8.00586H97.1079ZM124.22 9.15332V20.7012C124.22 21.9626 123.963 23.0856 123.451 24.0703C122.946 25.055 122.181 25.8322 121.156 26.4019C120.13 26.9634 118.845 27.2441 117.298 27.2441C115.093 27.2441 113.412 26.646 112.257 25.4497C111.109 24.2534 110.536 22.6543 110.536 20.6523V9.15332H112.623V20.7134C112.623 22.2271 113.022 23.3949 113.819 24.2168C114.625 25.0387 115.825 25.4497 117.42 25.4497C118.511 25.4497 119.402 25.2544 120.094 24.8638C120.794 24.465 121.31 23.9116 121.644 23.2036C121.986 22.4875 122.157 21.6615 122.157 20.7256V9.15332H124.22ZM128.956 27V9.15332H131.031V27H128.956Z" fill="black"/>
</svg>
